<svg xmlns="http://www.w3.org/2000/svg" width="900" height="1200" viewBox="0 0 900 1200">
  <rect width="900" height="1200" fill="#f7f8f6"/>
  <rect width="900" height="120" rx="24" fill="#215464"/>
  <circle cx="64" cy="64" r="28" fill="#ffffff22"/>
  <text x="108" y="58" font-family="Arial" font-size="28" font-weight="700" fill="white">Milk Ledger</text>
  <text x="108" y="86" font-family="Arial" font-size="16" fill="#c9dbe0">Purchase ₹200/ltr · Sale items from ₹40</text>
  <rect x="36" y="156" width="828" height="118" rx="14" fill="white" stroke="#dfe7ef"/>
  <text x="56" y="196" font-family="Arial" font-size="14" font-weight="700" fill="#8da0b8">DASHBOARD PERIOD</text>
  <rect x="56" y="214" width="380" height="38" rx="8" fill="#f1f5f9"/>
  <rect x="464" y="214" width="380" height="38" rx="8" fill="#f1f5f9"/>
  <text x="56" y="296" font-family="Arial" font-size="14" font-weight="700" fill="#8da0b8">PERIOD SUMMARY</text>
  <rect x="36" y="320" width="190" height="110" rx="12" fill="white" stroke="#dfe7ef"/>
  <rect x="246" y="320" width="190" height="110" rx="12" fill="white" stroke="#dfe7ef"/>
  <rect x="456" y="320" width="190" height="110" rx="12" fill="white" stroke="#dfe7ef"/>
  <rect x="666" y="320" width="198" height="110" rx="12" fill="white" stroke="#dfe7ef"/>
  <text x="58" y="354" font-family="Arial" font-size="14" font-weight="700" fill="#8da0b8">Purchase</text>
  <text x="58" y="392" font-family="Arial" font-size="30" font-weight="700" fill="#215464">72.2 L</text>
  <text x="268" y="354" font-family="Arial" font-size="14" font-weight="700" fill="#8da0b8">Sale</text>
  <text x="268" y="392" font-family="Arial" font-size="30" font-weight="700" fill="#6b4fa0">31.8 L</text>
  <text x="478" y="354" font-family="Arial" font-size="14" font-weight="700" fill="#8da0b8">Credit</text>
  <text x="478" y="392" font-family="Arial" font-size="26" font-weight="700" fill="#a1690a">₹3,256</text>
  <text x="688" y="354" font-family="Arial" font-size="14" font-weight="700" fill="#8da0b8">Udhaar</text>
  <text x="688" y="392" font-family="Arial" font-size="26" font-weight="700" fill="#b3391f">₹4,204</text>
  <rect x="36" y="464" width="828" height="260" rx="14" fill="white" stroke="#dfe7ef"/>
  <text x="58" y="504" font-family="Arial" font-size="15" font-weight="700" fill="#8da0b8">LAST 7 DAYS (₹)</text>
  <rect x="110" y="612" width="42" height="70" rx="5" fill="#215464"/>
  <rect x="162" y="648" width="42" height="34" rx="5" fill="#6b4fa0"/>
  <rect x="250" y="582" width="42" height="100" rx="5" fill="#215464"/>
  <rect x="302" y="618" width="42" height="64" rx="5" fill="#6b4fa0"/>
  <rect x="390" y="604" width="42" height="78" rx="5" fill="#215464"/>
  <rect x="442" y="560" width="42" height="122" rx="5" fill="#6b4fa0"/>
  <rect x="530" y="632" width="42" height="50" rx="5" fill="#215464"/>
  <rect x="582" y="588" width="42" height="94" rx="5" fill="#6b4fa0"/>
  <rect x="670" y="538" width="42" height="144" rx="5" fill="#215464"/>
  <rect x="722" y="590" width="42" height="92" rx="5" fill="#6b4fa0"/>
  <rect x="36" y="760" width="828" height="270" rx="14" fill="white" stroke="#dfe7ef"/>
  <text x="58" y="800" font-family="Arial" font-size="15" font-weight="700" fill="#8da0b8">TRANSACTIONS</text>
  <rect x="58" y="830" width="784" height="44" fill="#f1f5f9"/>
  <text x="78" y="858" font-family="Arial" font-size="13" font-weight="700" fill="#64748b">Date</text>
  <text x="190" y="858" font-family="Arial" font-size="13" font-weight="700" fill="#64748b">Party</text>
  <text x="390" y="858" font-family="Arial" font-size="13" font-weight="700" fill="#64748b">Item</text>
  <text x="590" y="858" font-family="Arial" font-size="13" font-weight="700" fill="#64748b">Amount</text>
  <text x="720" y="858" font-family="Arial" font-size="13" font-weight="700" fill="#64748b">Status</text>
  <text x="78" y="910" font-family="Arial" font-size="14" fill="#334155">13 Jul</text>
  <text x="190" y="910" font-family="Arial" font-size="14" font-weight="700" fill="#334155">Ramesh Yadav</text>
  <text x="390" y="910" font-family="Arial" font-size="14" fill="#334155">Fresh Buffalo</text>
  <text x="590" y="910" font-family="Arial" font-size="14" font-weight="700" fill="#334155">₹284.28</text>
  <text x="720" y="910" font-family="Arial" font-size="14" fill="#1b7a5e">Paid</text>
  <rect x="246" y="1070" width="408" height="70" rx="35" fill="white" stroke="#dfe7ef"/>
  <text x="294" y="1112" font-family="Arial" font-size="14" font-weight="700" fill="#215464">Dashboard</text>
  <text x="426" y="1112" font-family="Arial" font-size="14" fill="#94a3b8">Parties</text>
  <text x="538" y="1112" font-family="Arial" font-size="14" fill="#94a3b8">Account</text>
</svg>
